<svg xmlns="http://www.w3.org/2000/svg" width="920" height="455" viewBox="0 0 920 455">
  <style>
    .title { font: 700 24px Arial, sans-serif; fill: #1f2937; }
    .label { font: 15px Arial, sans-serif; fill: #374151; }
    .value { font: 14px Arial, sans-serif; fill: #4b5563; }
    .bar { fill: #3b82f6; }
    .axis { stroke: #d1d5db; stroke-width: 1; }
  </style>
  <rect width="100%" height="100%" fill="#ffffff"/>
  <text x="36" y="38" class="title">TOP-10 lemmas</text>
  <line x1="170" y1="58" x2="170" y2="421" class="axis"/>
  <text x="156" y="91" text-anchor="end" class="label">україна</text><rect x="170" y="70" width="620" height="22" rx="3" class="bar"/><text x="800" y="87" class="value">7</text>
<text x="156" y="125" text-anchor="end" class="label">лідер</text><rect x="170" y="104" width="442" height="22" rx="3" class="bar"/><text x="622" y="121" class="value">5</text>
<text x="156" y="159" text-anchor="end" class="label">єс</text><rect x="170" y="138" width="442" height="22" rx="3" class="bar"/><text x="622" y="155" class="value">5</text>
<text x="156" y="193" text-anchor="end" class="label">дати</text><rect x="170" y="172" width="354" height="22" rx="3" class="bar"/><text x="534" y="189" class="value">4</text>
<text x="156" y="227" text-anchor="end" class="label">іран</text><rect x="170" y="206" width="354" height="22" rx="3" class="bar"/><text x="534" y="223" class="value">4</text>
<text x="156" y="261" text-anchor="end" class="label">ціна</text><rect x="170" y="240" width="265" height="22" rx="3" class="bar"/><text x="445" y="257" class="value">3</text>
<text x="156" y="295" text-anchor="end" class="label">дрон</text><rect x="170" y="274" width="265" height="22" rx="3" class="bar"/><text x="445" y="291" class="value">3</text>
<text x="156" y="329" text-anchor="end" class="label">удар</text><rect x="170" y="308" width="265" height="22" rx="3" class="bar"/><text x="445" y="325" class="value">3</text>
<text x="156" y="363" text-anchor="end" class="label">крим</text><rect x="170" y="342" width="265" height="22" rx="3" class="bar"/><text x="445" y="359" class="value">3</text>
<text x="156" y="397" text-anchor="end" class="label">назвати</text><rect x="170" y="376" width="265" height="22" rx="3" class="bar"/><text x="445" y="393" class="value">3</text>
</svg>
